<svg width="26" height="25" viewBox="0 0 26 25" fill="none" xmlns="http://www.w3.org/2000/svg">
<path d="M3.67609 15.7147L1.81149 15.3034C1.265 16.4059 0.746399 17.6444 0.746399 19.0713C0.746399 20.4708 1.24401 21.6943 1.81149 22.8392L8.11945 21.4477V24.1919L10.3167 23.0933L12.514 24.1919V21.4492L18.7727 22.84C19.315 21.746 19.8382 20.5042 19.8382 19.0713C19.8382 18.8243 19.8199 18.5785 19.7892 18.3389H25.7464V0.760742H3.67609V15.7147ZM2.64728 21.1547C2.45675 20.6509 2.21124 19.8505 2.21124 19.0713C2.21124 18.2919 2.4568 17.4914 2.64728 16.9878L8.11945 18.1949V19.9477L2.64728 21.1547ZM11.0491 21.8217L10.3167 21.4555L9.58429 21.8217V18.3388H11.0491V21.8217ZM17.9377 21.1539L12.514 19.9486V18.1939L17.9377 16.9887C18.1281 17.4926 18.3734 18.2925 18.3734 19.0712C18.3734 19.8502 18.1281 20.6502 17.9377 21.1539ZM24.2816 2.22559V16.874H19.4502C19.2101 16.1395 19.0165 15.7927 18.7727 15.3026L11.7012 16.874H8.93175L5.14093 16.0378V2.22559H24.2816Z" fill="black"/>
<path d="M9.58429 3.69043H19.8382V5.15527H9.58429V3.69043Z" fill="black"/>
<path d="M6.60577 9.5498H22.8167V11.0146H6.60577V9.5498Z" fill="black"/>
<path d="M9.58429 12.4795H19.8382V13.9443H9.58429V12.4795Z" fill="black"/>
<path d="M11.0491 6.62012H12.514V8.08496H11.0491V6.62012Z" fill="black"/>
<path d="M13.9788 6.62012H15.4437V8.08496H13.9788V6.62012Z" fill="black"/>
<path d="M16.9085 6.62012H18.3734V8.08496H16.9085V6.62012Z" fill="black"/>
</svg>
