<svg width="26" height="22" viewBox="0 0 26 22" fill="none" xmlns="http://www.w3.org/2000/svg">
<path d="M24.1335 0.760681H2.35927C1.93168 0.761241 1.52175 0.931352 1.2194 1.23371C0.917039 1.53606 0.746929 1.94599 0.746368 2.37358V16.0833C0.746929 16.5109 0.917039 16.9208 1.2194 17.2231C1.52175 17.5255 1.93168 17.6956 2.35927 17.6962H10.6708L10.133 19.3091H8.81088C8.70394 19.3091 8.60138 19.3516 8.52576 19.4272C8.45014 19.5028 8.40766 19.6054 8.40766 19.7123V20.5187H4.77863C4.67168 20.5187 4.56912 20.5612 4.4935 20.6368C4.41788 20.7125 4.3754 20.815 4.3754 20.922C4.3754 21.0289 4.41788 21.1315 4.4935 21.2071C4.56912 21.2827 4.67168 21.3252 4.77863 21.3252H22.5206C22.6275 21.3252 22.7301 21.2827 22.8057 21.2071C22.8813 21.1315 22.9238 21.0289 22.9238 20.922C22.9238 20.815 22.8813 20.7125 22.8057 20.6368C22.7301 20.5612 22.6275 20.5187 22.5206 20.5187H18.0851V19.7123C18.0851 19.6054 18.0426 19.5028 17.967 19.4272C17.8914 19.3516 17.7888 19.3091 17.6819 19.3091H16.3598L15.822 17.6962H24.1335C24.5611 17.6956 24.971 17.5255 25.2733 17.2231C25.5757 16.9208 25.7458 16.5109 25.7464 16.0833V2.37358C25.7458 1.94599 25.5757 1.53606 25.2733 1.23371C24.971 0.931352 24.5611 0.761241 24.1335 0.760681ZM17.2786 20.1155V20.5187H9.21411V20.1155H17.2786ZM10.9833 19.3091L11.5211 17.6962H14.9717L15.5095 19.3091H10.9833ZM24.9399 16.0833C24.9396 16.2971 24.8546 16.502 24.7034 16.6532C24.5522 16.8044 24.3473 16.8894 24.1335 16.8897H2.35927C2.14547 16.8894 1.94051 16.8044 1.78933 16.6532C1.63816 16.502 1.5531 16.2971 1.55282 16.0833V15.2768H24.9399V16.0833ZM7.58407 10.8413L7.43286 14.4704H6.9631L6.81189 10.8413H7.58407ZM6.86734 10.0349L7.13649 8.42197H7.25947L7.52863 10.0349H6.86734ZM7.19798 7.61552C6.76099 7.61552 6.39153 7.06159 6.39153 6.40584C6.39153 5.99203 6.81391 5.39072 7.19697 4.96683C7.54224 5.34989 8.00443 5.96229 8.00443 6.40584C8.00443 7.06159 7.63498 7.61552 7.19798 7.61552ZM11.5861 6.80907L11.6335 6.90433V7.21229H10.0206V6.90433L10.0679 6.80907H11.5861ZM10.4712 6.00262L10.827 5.29143L11.1829 6.00262H10.4712ZM11.6335 8.01875V14.42C11.6336 14.4368 11.6348 14.4536 11.637 14.4704H10.017C10.0192 14.4536 10.0204 14.4368 10.0206 14.42V8.01875H11.6335ZM15.2625 6.40584H16.4722V7.21229H16.0689C15.962 7.21229 15.8594 7.25478 15.7838 7.3304C15.7082 7.40602 15.6657 7.50858 15.6657 7.61552C15.6657 7.72246 15.7082 7.82502 15.7838 7.90064C15.8594 7.97626 15.962 8.01875 16.0689 8.01875H16.4722V8.8252H15.2625C15.1556 8.8252 15.053 8.86768 14.9774 8.9433C14.9018 9.01892 14.8593 9.12148 14.8593 9.22842C14.8593 9.33537 14.9018 9.43793 14.9774 9.51355C15.053 9.58917 15.1556 9.63165 15.2625 9.63165H16.4722V10.4381H16.0689C15.962 10.4381 15.8594 10.4806 15.7838 10.5562C15.7082 10.6318 15.6657 10.7344 15.6657 10.8413C15.6657 10.9483 15.7082 11.0508 15.7838 11.1265C15.8594 11.2021 15.962 11.2446 16.0689 11.2446H16.4722V12.051H15.2625C15.1556 12.051 15.053 12.0935 14.9774 12.1691C14.9018 12.2447 14.8593 12.3473 14.8593 12.4542C14.8593 12.5612 14.9018 12.6637 14.9774 12.7394C15.053 12.815 15.1556 12.8575 15.2625 12.8575H16.4722V14.4704H13.6496V4.79294H16.4722V5.59939H15.2625C15.1556 5.59939 15.053 5.64187 14.9774 5.71749C14.9018 5.79311 14.8593 5.89567 14.8593 6.00262C14.8593 6.10956 14.9018 6.21212 14.9774 6.28774C15.053 6.36336 15.1556 6.40584 15.2625 6.40584ZM20.1012 11.2446V14.42C20.1014 14.4368 20.1025 14.4536 20.1047 14.4704H18.4848C18.487 14.4536 18.4881 14.4368 18.4883 14.42V11.2446H20.1012ZM18.4883 10.4381V10.1301L19.2948 8.51723L20.1012 10.1301V10.4381H18.4883ZM24.9399 14.4704H20.9041C20.9063 14.4536 20.9075 14.4368 20.9077 14.42V10.0349C20.9076 9.97227 20.8931 9.91053 20.8653 9.85443L19.6556 7.43508C19.6221 7.36811 19.5706 7.31181 19.5068 7.27246C19.4431 7.23312 19.3697 7.21228 19.2948 7.21228C19.2199 7.21228 19.1464 7.23312 19.0827 7.27246C19.019 7.31181 18.9674 7.36811 18.9339 7.43508L17.7242 9.85443C17.6964 9.91053 17.6819 9.97227 17.6819 10.0349V14.42C17.682 14.4368 17.6832 14.4536 17.6854 14.4704H17.2786V4.38971C17.2786 4.28277 17.2361 4.18021 17.1605 4.10459C17.0849 4.02897 16.9823 3.98649 16.8754 3.98649H13.2464C13.1394 3.98649 13.0369 4.02897 12.9612 4.10459C12.8856 4.18021 12.8431 4.28277 12.8431 4.38971V14.4704H12.4364C12.4386 14.4536 12.4398 14.4368 12.4399 14.42V6.80907C12.4399 6.74647 12.4254 6.68472 12.3976 6.62862L11.1879 4.20927C11.1543 4.14231 11.1028 4.086 11.0391 4.04666C10.9753 4.00731 10.9019 3.98647 10.827 3.98647C10.7521 3.98647 10.6787 4.00731 10.615 4.04666C10.5512 4.086 10.4997 4.14231 10.4661 4.20927L9.25645 6.62862C9.22866 6.68472 9.21417 6.74647 9.21411 6.80907V14.42C9.21426 14.4368 9.21544 14.4536 9.21764 14.4704H8.23982L8.40716 10.4547C8.40766 10.4457 8.40716 10.4366 8.40716 10.427V10.4149C8.40622 10.4007 8.40454 10.3866 8.40211 10.3726V10.3716L8.02913 8.13316C8.49738 7.77983 8.81088 7.1377 8.81088 6.40584C8.81088 5.36955 7.60978 4.22187 7.47268 4.09435C7.39797 4.0251 7.29985 3.98662 7.19798 3.98662C7.09611 3.98662 6.998 4.0251 6.92328 4.09435C6.78619 4.22187 5.58508 5.36955 5.58508 6.40584C5.58508 7.1377 5.89859 7.77983 6.36683 8.13316L5.99385 10.3716V10.3726C5.99142 10.3866 5.98974 10.4007 5.98881 10.4149V10.427C5.98881 10.4366 5.9883 10.4457 5.98881 10.4547L6.15615 14.4704H1.55282V2.37358C1.5531 2.15979 1.63816 1.95482 1.78933 1.80365C1.94051 1.65247 2.14547 1.56741 2.35927 1.56713H24.1335C24.3473 1.56741 24.5522 1.65247 24.7034 1.80365C24.8546 1.95482 24.9396 2.15979 24.9399 2.37358V14.4704Z" fill="black"/>
<path d="M5.18186 15.6801H2.76251C2.65557 15.6801 2.55301 15.7225 2.47739 15.7982C2.40177 15.8738 2.35928 15.9763 2.35928 16.0833C2.35928 16.1902 2.40177 16.2928 2.47739 16.3684C2.55301 16.444 2.65557 16.4865 2.76251 16.4865H5.18186C5.28881 16.4865 5.39137 16.444 5.46699 16.3684C5.54261 16.2928 5.58509 16.1902 5.58509 16.0833C5.58509 15.9763 5.54261 15.8738 5.46699 15.7982C5.39137 15.7225 5.28881 15.6801 5.18186 15.6801Z" fill="black"/>
<path d="M6.79476 15.6801H6.39154C6.2846 15.6801 6.18203 15.7225 6.10641 15.7982C6.03079 15.8738 5.98831 15.9763 5.98831 16.0833C5.98831 16.1902 6.03079 16.2928 6.10641 16.3684C6.18203 16.444 6.2846 16.4865 6.39154 16.4865H6.79476C6.90171 16.4865 7.00427 16.444 7.07989 16.3684C7.15551 16.2928 7.19799 16.1902 7.19799 16.0833C7.19799 15.9763 7.15551 15.8738 7.07989 15.7982C7.00427 15.7225 6.90171 15.6801 6.79476 15.6801Z" fill="black"/>
<path d="M10.827 8.422C10.7201 8.422 10.6175 8.46448 10.5419 8.5401C10.4663 8.61572 10.4238 8.71828 10.4238 8.82522V13.2607C10.4238 13.3676 10.4663 13.4702 10.5419 13.5458C10.6175 13.6214 10.7201 13.6639 10.827 13.6639C10.934 13.6639 11.0365 13.6214 11.1121 13.5458C11.1878 13.4702 11.2302 13.3676 11.2302 13.2607V8.82522C11.2302 8.71828 11.1878 8.61572 11.1121 8.5401C11.0365 8.46448 10.934 8.422 10.827 8.422Z" fill="black"/>
<path d="M19.2948 11.6478C19.1878 11.6478 19.0853 11.6902 19.0096 11.7659C18.934 11.8415 18.8915 11.944 18.8915 12.051V13.2607C18.8915 13.3676 18.934 13.4702 19.0096 13.5458C19.0853 13.6214 19.1878 13.6639 19.2948 13.6639C19.4017 13.6639 19.5043 13.6214 19.5799 13.5458C19.6555 13.4702 19.698 13.3676 19.698 13.2607V12.051C19.698 11.944 19.6555 11.8415 19.5799 11.7659C19.5043 11.6902 19.4017 11.6478 19.2948 11.6478Z" fill="black"/>
<path d="M2.76251 3.18005H5.98832C6.09526 3.18005 6.19782 3.13757 6.27344 3.06195C6.34906 2.98633 6.39154 2.88376 6.39154 2.77682C6.39154 2.66988 6.34906 2.56732 6.27344 2.4917C6.19782 2.41608 6.09526 2.3736 5.98832 2.3736H2.76251C2.65557 2.3736 2.55301 2.41608 2.47739 2.4917C2.40177 2.56732 2.35928 2.66988 2.35928 2.77682C2.35928 2.88376 2.40177 2.98633 2.47739 3.06195C2.55301 3.13757 2.65557 3.18005 2.76251 3.18005Z" fill="black"/>
<path d="M2.76251 4.3897H3.56896C3.6759 4.3897 3.77847 4.34722 3.85408 4.2716C3.9297 4.19598 3.97219 4.09342 3.97219 3.98648C3.97219 3.87954 3.9297 3.77697 3.85408 3.70135C3.77847 3.62573 3.6759 3.58325 3.56896 3.58325H2.76251C2.65557 3.58325 2.55301 3.62573 2.47739 3.70135C2.40177 3.77697 2.35928 3.87954 2.35928 3.98648C2.35928 4.09342 2.40177 4.19598 2.47739 4.2716C2.55301 4.34722 2.65557 4.3897 2.76251 4.3897Z" fill="black"/>
<path d="M22.1173 13.6639H23.7302C23.8372 13.6639 23.9397 13.6215 24.0154 13.5458C24.091 13.4702 24.1335 13.3677 24.1335 13.2607C24.1335 13.1538 24.091 13.0512 24.0154 12.9756C23.9397 12.9 23.8372 12.8575 23.7302 12.8575H22.1173C22.0104 12.8575 21.9078 12.9 21.8322 12.9756C21.7566 13.0512 21.7141 13.1538 21.7141 13.2607C21.7141 13.3677 21.7566 13.4702 21.8322 13.5458C21.9078 13.6215 22.0104 13.6639 22.1173 13.6639Z" fill="black"/>
<path d="M23.327 12.4542H23.7302C23.8372 12.4542 23.9398 12.4117 24.0154 12.3361C24.091 12.2605 24.1335 12.1579 24.1335 12.051C24.1335 11.944 24.091 11.8415 24.0154 11.7659C23.9398 11.6902 23.8372 11.6478 23.7302 11.6478H23.327C23.2201 11.6478 23.1175 11.6902 23.0419 11.7659C22.9663 11.8415 22.9238 11.944 22.9238 12.051C22.9238 12.1579 22.9663 12.2605 23.0419 12.3361C23.1175 12.4117 23.2201 12.4542 23.327 12.4542Z" fill="black"/>
</svg>
