<svg width="26" height="26" viewBox="0 0 26 26" fill="none" xmlns="http://www.w3.org/2000/svg">
<path d="M21.0109 19.9064L20.3609 20.34L21.8913 22.6357H4.60109L6.42413 19.9014H16.3487V19.1201H6.21515C6.15086 19.1201 6.08755 19.136 6.03086 19.1663C5.97416 19.1966 5.92583 19.2405 5.89015 19.2939L3.5464 22.8096C3.50372 22.8738 3.4809 22.9492 3.48077 23.0264V24.1982C3.48077 24.4054 3.56308 24.6042 3.7096 24.7507C3.85611 24.8972 4.05482 24.9795 4.26202 24.9795H22.2308C22.438 24.9795 22.6367 24.8972 22.7832 24.7507C22.9297 24.6042 23.012 24.4054 23.012 24.1982V23.0264C23.0119 22.9492 22.9891 22.8738 22.9464 22.8096L21.0109 19.9064ZM4.26202 24.1982V23.417H22.2308V24.1982H4.26202Z" fill="black"/>
<path d="M21.0589 1.54199H5.4339C5.12338 1.54292 4.82585 1.66668 4.60628 1.88625C4.38671 2.10582 4.26295 2.40335 4.26202 2.71387V12.8701C4.26295 13.1806 4.38671 13.4782 4.60628 13.6977C4.82585 13.9173 5.12338 14.0411 5.4339 14.042H10.9026V15.6045H9.34015C9.23655 15.6045 9.13719 15.6456 9.06394 15.7189C8.99068 15.7922 8.94952 15.8915 8.94952 15.9951V17.5576C8.94952 17.6612 8.99068 17.7606 9.06394 17.8338C9.13719 17.9071 9.23655 17.9482 9.34015 17.9482H17.1526C17.2562 17.9482 17.3556 17.9071 17.4289 17.8338C17.5021 17.7606 17.5433 17.6612 17.5433 17.5576V15.9951C17.5433 15.8915 17.5021 15.7922 17.4289 15.7189C17.3556 15.6456 17.2562 15.6045 17.1526 15.6045H15.5901V14.042H21.0589C21.3694 14.0411 21.6669 13.9173 21.8865 13.6977C22.1061 13.4782 22.2298 13.1806 22.2308 12.8701V2.71387C22.2298 2.40335 22.1061 2.10582 21.8865 1.88625C21.6669 1.66668 21.3694 1.54292 21.0589 1.54199ZM16.762 16.3857V17.167H9.73077V16.3857H16.762ZM11.6839 15.6045V14.042H14.8089V15.6045H11.6839ZM21.4495 12.8701C21.4495 12.9737 21.4084 13.0731 21.3351 13.1463C21.2619 13.2196 21.1625 13.2607 21.0589 13.2607H5.4339C5.3303 13.2607 5.23094 13.2196 5.15769 13.1463C5.08443 13.0731 5.04327 12.9737 5.04327 12.8701V11.6982H21.4495V12.8701ZM21.4495 10.917H5.04327V2.71387C5.04327 2.61027 5.08443 2.51091 5.15769 2.43765C5.23094 2.3644 5.3303 2.32324 5.4339 2.32324H21.0589C21.1625 2.32324 21.2619 2.3644 21.3351 2.43765C21.4084 2.51091 21.4495 2.61027 21.4495 2.71387V10.917Z" fill="black"/>
<path d="M19.1058 12.0889H19.887V12.8701H19.1058V12.0889Z" fill="black"/>
<path d="M9.73077 10.1357H11.2933C11.3969 10.1357 11.4962 10.0946 11.5695 10.0213C11.6427 9.94807 11.6839 9.84872 11.6839 9.74512V9.35449H14.8089V9.74512C14.8089 9.84872 14.8501 9.94807 14.9233 10.0213C14.9966 10.0946 15.0959 10.1357 15.1995 10.1357H16.762C16.8656 10.1357 16.965 10.0946 17.0382 10.0213C17.1115 9.94807 17.1526 9.84872 17.1526 9.74512V8.18262C17.1526 8.07902 17.1115 7.97966 17.0382 7.9064C16.965 7.83315 16.8656 7.79199 16.762 7.79199H16.3714V5.44824H16.762C16.8656 5.44824 16.965 5.40709 17.0382 5.33383C17.1115 5.26057 17.1526 5.16122 17.1526 5.05762V3.49512C17.1526 3.39152 17.1115 3.29216 17.0382 3.2189C16.965 3.14565 16.8656 3.10449 16.762 3.10449H15.1995C15.0959 3.10449 14.9966 3.14565 14.9233 3.2189C14.8501 3.29216 14.8089 3.39152 14.8089 3.49512V3.88574H11.6839V3.49512C11.6839 3.39152 11.6427 3.29216 11.5695 3.2189C11.4962 3.14565 11.3969 3.10449 11.2933 3.10449H9.73077C9.62717 3.10449 9.52782 3.14565 9.45456 3.2189C9.3813 3.29216 9.34015 3.39152 9.34015 3.49512V5.05762C9.34015 5.16122 9.3813 5.26057 9.45456 5.33383C9.52782 5.40709 9.62717 5.44824 9.73077 5.44824H10.1214V7.79199H9.73077C9.62717 7.79199 9.52782 7.83315 9.45456 7.9064C9.3813 7.97966 9.34015 8.07902 9.34015 8.18262V9.74512C9.34015 9.84872 9.3813 9.94807 9.45456 10.0213C9.52782 10.0946 9.62717 10.1357 9.73077 10.1357ZM16.3714 9.35449H15.5901V8.57324H16.3714V9.35449ZM15.5901 3.88574H16.3714V4.66699H15.5901V3.88574ZM10.1214 3.88574H10.9026V4.66699H10.1214V3.88574ZM10.9026 5.44824H11.2933C11.3969 5.44824 11.4962 5.40709 11.5695 5.33383C11.6427 5.26057 11.6839 5.16122 11.6839 5.05762V4.66699H14.8089V5.05762C14.8089 5.16122 14.8501 5.26057 14.9233 5.33383C14.9966 5.40709 15.0959 5.44824 15.1995 5.44824H15.5901V7.79199H15.1995C15.0959 7.79199 14.9966 7.83315 14.9233 7.9064C14.8501 7.97966 14.8089 8.07902 14.8089 8.18262V8.57324H11.6839V8.18262C11.6839 8.07902 11.6427 7.97966 11.5695 7.9064C11.4962 7.83315 11.3969 7.79199 11.2933 7.79199H10.9026V5.44824ZM10.1214 8.57324H10.9026V9.35449H10.1214V8.57324Z" fill="black"/>
<path d="M9.73077 21.0732H15.1995V21.8545H9.73077V21.0732Z" fill="black"/>
<path d="M24.1331 15.1514L23.0277 14.0459C22.9913 14.0095 22.948 13.9808 22.9004 13.9613C22.8528 13.9419 22.8017 13.9321 22.7503 13.9326C22.6995 13.9321 22.649 13.9419 22.602 13.9614C22.555 13.9808 22.5125 14.0096 22.4769 14.0459L17.2269 19.2959C17.1841 19.3386 17.1519 19.3908 17.1331 19.4483L16.8558 20.2764C16.8335 20.345 16.8304 20.4185 16.8469 20.4887C16.8635 20.559 16.8989 20.6233 16.9495 20.6748L16.3987 21.2295L16.9495 21.7803L17.5042 21.2295C17.54 21.2655 17.5827 21.2941 17.6296 21.3135C17.6765 21.333 17.7268 21.3429 17.7776 21.3428C17.82 21.3423 17.8621 21.3358 17.9026 21.3233L18.7308 21.0459C18.7882 21.0271 18.8404 20.995 18.8831 20.9522L24.1331 15.7022C24.2059 15.629 24.2467 15.53 24.2467 15.4268C24.2467 15.3236 24.2059 15.2246 24.1331 15.1514ZM18.3987 20.335L17.887 20.5029L17.6722 20.292L17.8441 19.7803L21.6448 15.9795L22.1995 16.5303L18.3987 20.335ZM22.7503 15.9795L22.1995 15.4287L22.7503 14.874L23.305 15.4287L22.7503 15.9795Z" fill="black"/>
</svg>
