<svg width="26" height="26" viewBox="0 0 26 26" fill="none" xmlns="http://www.w3.org/2000/svg">
<g clip-path="url(#clip0)">
<path d="M23.2463 4.51074H11.9963V5.34407H23.2463V4.51074Z" fill="black"/>
<path d="M19.0797 6.17737H11.9963V7.0107H19.0797V6.17737Z" fill="black"/>
<path d="M19.0797 7.84412H11.9963V8.67745H19.0797V7.84412Z" fill="black"/>
<path d="M23.2463 2.84412H15.3297V3.67745H23.2463V2.84412Z" fill="black"/>
<path d="M14.4964 2.84412H13.663V3.67745H14.4964V2.84412Z" fill="black"/>
<path d="M13.663 17.4274H12.8297V18.2607H13.663V17.4274Z" fill="black"/>
<path d="M7.70758 3.55535L7.11841 2.96619L6.28508 3.79952C6.12242 3.96223 6.12242 4.22598 6.28508 4.38869L7.11841 5.22202L7.70758 4.63285L7.16883 4.0941L7.70758 3.55535Z" fill="black"/>
<path d="M11.0409 3.79952L10.2076 2.96619L9.61841 3.55535L10.1572 4.0941L9.61841 4.63285L10.2076 5.22202L11.0409 4.38869C11.2036 4.22598 11.2036 3.96223 11.0409 3.79952Z" fill="black"/>
<path d="M8.6847 2.71184L7.85059 5.21179L8.64069 5.47541L9.4748 2.97545L8.6847 2.71184Z" fill="black"/>
<path d="M22.413 13.6774V10.3441H21.5797V13.6774H20.7464V9.51074H19.913V13.6774H19.0797V11.5941H18.2464V13.6774H17.413V11.1774H16.5797V13.6774H15.7464V12.0107H14.913V13.6774H14.0797V14.5107H23.2464V13.6774H22.413Z" fill="black"/>
<path d="M22.8297 0.760742H3.66302C2.28287 0.762096 1.16438 1.88059 1.16302 3.26074V11.4382V11.442V16.1774V17.4274C1.16438 18.8076 2.28287 19.9261 3.66302 19.9274H8.82219L7.15552 23.2607H4.91302C4.22266 23.2607 3.66302 23.8204 3.66302 24.5107C3.66302 25.2011 4.22266 25.7607 4.91302 25.7607H21.5797C22.2701 25.7607 22.8297 25.2011 22.8297 24.5107C22.8297 23.8204 22.2701 23.2607 21.5797 23.2607H19.3372L17.6705 19.9274H22.8297C24.2098 19.9261 25.3283 18.8076 25.3297 17.4274V3.26074C25.3283 1.88059 24.2098 0.762096 22.8297 0.760742ZM1.99636 6.62324L2.94344 7.75074C3.02261 7.84506 3.13948 7.89949 3.26261 7.89949H4.53802C4.66115 7.89949 4.77802 7.84506 4.85719 7.75074L5.80469 6.62324L6.73969 6.92699L6.84302 8.39491C6.85157 8.51767 6.91396 8.63038 7.01344 8.70283L8.04552 9.45283C8.14537 9.52491 8.27183 9.54944 8.39136 9.51991L9.82177 9.16449L10.4001 9.95991L9.62052 11.2099C9.55594 11.3147 9.54099 11.4427 9.57969 11.5595L9.97427 12.7724C10.0122 12.8894 10.0999 12.9837 10.2139 13.0299L11.5797 13.5837V14.567L10.213 15.1207C10.0988 15.1668 10.011 15.2613 9.97344 15.3787L9.84844 15.7607H7.44802C8.38177 13.8057 7.55386 11.4639 5.59886 10.5302C4.45058 9.98173 3.10756 10.0243 1.99636 10.6445V6.62324ZM1.99636 11.6357C3.34407 10.5843 5.28896 10.8245 6.34032 12.1723C7.15209 13.2128 7.21474 14.6537 6.49636 15.7607H1.99636V11.6357ZM21.5797 24.0941C21.8098 24.0941 21.9964 24.2806 21.9964 24.5107C21.9964 24.7408 21.8098 24.9274 21.5797 24.9274H4.91302C4.68292 24.9274 4.49636 24.7408 4.49636 24.5107C4.49636 24.2806 4.68292 24.0941 4.91302 24.0941H21.5797ZM18.4055 23.2607H8.08719L9.75386 19.9274H16.7389L18.4055 23.2607ZM24.4964 17.4274C24.4964 18.3479 23.7502 19.0941 22.8297 19.0941H3.66302C2.74256 19.0941 1.99636 18.3479 1.99636 17.4274V16.5941H6.71386H6.71761H24.4964V17.4274ZM24.4964 15.7607H10.8526L12.153 15.2337C12.3101 15.1699 12.4129 15.0174 12.413 14.8478V13.3024C12.4131 13.1327 12.3103 12.98 12.153 12.9162L10.7047 12.3303L10.4305 11.4866L11.2564 10.1616C11.3459 10.0176 11.3393 9.83376 11.2397 9.69658L10.3314 8.44658C10.2316 8.30923 10.0586 8.24611 9.89386 8.28699L8.37886 8.66199L7.66302 8.14199L7.55344 6.58783C7.54151 6.4184 7.42792 6.27314 7.26636 6.22074L5.79761 5.74324C5.63599 5.69178 5.45933 5.74257 5.34969 5.87199L4.34677 7.06574H3.45802L2.45469 5.87199C2.345 5.74241 2.16808 5.69158 2.00636 5.74324L1.99636 5.74699V3.26074C1.99636 2.34027 2.74256 1.59408 3.66302 1.59408H22.8297C23.7502 1.59408 24.4964 2.34027 24.4964 3.26074V15.7607Z" fill="black"/>
</g>
<defs>
<clipPath id="clip0">
<rect width="25" height="25" fill="white" transform="translate(0.746338 0.760742)"/>
</clipPath>
</defs>
</svg>
