<svg width="21" height="26" viewBox="0 0 21 26" fill="none" xmlns="http://www.w3.org/2000/svg">
<path d="M17.4632 17.0937L15.996 16.6629L12.8038 14.5779V14.1002C13.728 13.403 14.3627 12.3375 14.4807 11.116C14.9442 11.0414 15.2993 10.6386 15.2993 10.1545V8.84073C15.2993 8.83566 15.2988 8.83068 15.2985 8.8256V7.16144C15.4832 7.02921 15.6004 6.81383 15.6004 6.57223V5.04928L17.8034 4.67404C18.1654 4.61237 18.4258 4.32482 18.4514 3.95846C18.4769 3.5921 18.2589 3.2712 17.909 3.15992L10.4824 0.797717C10.3274 0.748401 10.1637 0.74845 10.0088 0.797668L2.58212 3.15992C2.23217 3.2712 2.0142 3.5921 2.03974 3.95841C2.05595 4.19117 2.16718 4.39186 2.33886 4.5233V6.51486H2.3207C1.90248 6.51486 1.56225 6.85509 1.56225 7.2733V8.26188L1.07265 11.1355C0.988031 11.6325 1.37084 12.0875 1.87621 12.0875H3.53388C4.03813 12.0875 4.42226 11.6336 4.33745 11.1355L3.84785 8.26188V7.2733C3.84785 6.85509 3.50761 6.51486 3.0894 6.51486H3.07128V4.73932L4.89228 5.04948V6.57223C4.89228 6.81281 5.00893 7.02784 5.19272 7.16027L5.1934 8.84088V10.1545C5.1934 10.6387 5.54853 11.0414 6.01205 11.116C6.12998 12.3368 6.76396 13.4019 7.6873 14.099V14.579L4.4958 16.6636L3.02973 17.094C1.46093 17.5544 0.353216 18.9947 0.353216 20.6689V21.7603C0.353216 21.9626 0.517133 22.1265 0.719427 22.1265C0.921722 22.1265 1.08564 21.9626 1.08564 21.7603V20.6689C1.08564 19.3494 1.96987 18.1683 3.23603 17.7967L4.60205 17.3957L10.0594 20.6385C10.1702 20.7044 10.3167 20.7079 10.4335 20.6385L15.8912 17.3955L17.257 17.7965C18.523 18.1682 19.4072 19.3492 19.4072 20.6687V24.2057C19.4072 24.6593 19.0381 25.0284 18.5845 25.0284H16.9704V23.4499C16.9704 23.2477 16.8064 23.0837 16.6041 23.0837C16.4019 23.0837 16.2379 23.2476 16.2379 23.4499V25.0284H4.25317V23.4499C4.25317 23.2477 4.08925 23.0837 3.88696 23.0837C3.68466 23.0837 3.52075 23.2476 3.52075 23.4499V25.0284H1.90829C1.45463 25.0284 1.08554 24.6593 1.08554 24.2057V23.4722C1.08554 23.2699 0.921625 23.106 0.71933 23.106C0.517035 23.106 0.353119 23.2699 0.353119 23.4722V24.2056C0.353119 25.0631 1.05073 25.7608 1.90825 25.7608H18.5844C19.4419 25.7608 20.1395 25.0631 20.1395 24.2056V20.6686C20.1395 19.0338 19.0696 17.5653 17.4632 17.0937ZM3.53383 11.355H1.87621C1.82499 11.355 1.78593 11.3093 1.79462 11.2585L2.23749 8.65905H3.17255L3.61542 11.2584C3.62407 11.3091 3.5853 11.355 3.53383 11.355ZM3.11542 7.2733V7.92667H2.29457V7.2733C2.29457 7.2589 2.30624 7.24723 2.32065 7.24723H3.0893C3.10375 7.24718 3.11542 7.2589 3.11542 7.2733ZM8.93662 18.982L9.08237 19.206L5.34365 16.9845L7.71674 15.4344C7.82436 16.6971 8.24057 17.9122 8.93662 18.982ZM8.93408 17.4012C9.79604 17.5236 10.6961 17.5237 11.5586 17.4012C11.3919 17.8112 11.1866 18.2069 10.9422 18.5826L10.2463 19.6522L9.55048 18.5826C9.3061 18.2069 9.10073 17.8112 8.93408 17.4012ZM11.5561 18.982C12.2521 17.9122 12.6683 16.6971 12.7759 15.4344L15.149 16.9844L11.4103 19.206L11.5561 18.982ZM13.6982 7.29781H14.5662V8.47447H14.1353C13.8943 8.47447 13.6981 8.27838 13.6981 8.03732V7.29781H13.6982ZM2.8041 3.85787L10.2309 1.49557C10.2404 1.49254 10.2507 1.49249 10.2603 1.49562L17.6871 3.85787C17.7024 3.86276 17.7235 3.8694 17.7208 3.90753C17.7181 3.94562 17.6964 3.94928 17.6805 3.95201L15.225 4.37023L14.3031 4.25621C14.1025 4.23136 13.9196 4.37404 13.8948 4.57472C13.87 4.77545 14.0126 4.95826 14.2133 4.98307L14.8681 5.06407V6.56544L5.62465 6.5651V5.06403L9.41406 4.59513C9.96601 4.52692 10.5256 4.52692 11.0771 4.59513L12.5114 4.77252C12.7121 4.79738 12.8949 4.65475 12.9198 4.45407C12.9446 4.25333 12.802 4.07052 12.6013 4.04567L11.1671 3.86827C10.5559 3.79264 9.93579 3.79264 9.32416 3.86827L5.26684 4.37033L2.81064 3.95201C2.79472 3.94928 2.77299 3.94562 2.77031 3.90753C2.76767 3.8694 2.78871 3.86271 2.8041 3.85787ZM5.92558 8.47447L5.92509 7.29781H6.79448V8.03736C6.79448 8.27838 6.59838 8.47452 6.35727 8.47452H5.92558V8.47447ZM6.73159 10.9278C6.71274 10.6296 6.46489 10.396 6.16738 10.396C6.03413 10.396 5.92573 10.2876 5.92573 10.1544V9.2069H6.35727C7.00214 9.2069 7.52685 8.68224 7.52685 8.03736V7.29781H12.9658V8.03736C12.9658 8.68224 13.4905 9.2069 14.1353 9.2069H14.5669V10.1544C14.5669 10.2876 14.4585 10.396 14.3252 10.396C14.0277 10.396 13.7799 10.6296 13.761 10.9278C13.6444 12.7769 12.1005 14.2254 10.2463 14.2254C8.39204 14.2254 6.84824 12.7769 6.73159 10.9278ZM10.2463 14.9578C10.8977 14.9578 11.5167 14.8089 12.0714 14.5441V14.7761C12.0714 15.4023 11.987 16.0199 11.8243 16.6156C10.8291 16.8053 9.70395 16.813 8.66835 16.6156C8.50571 16.0199 8.42124 15.4023 8.42124 14.7761C8.42124 14.7684 8.42016 14.7608 8.41967 14.7531C8.41958 14.7516 8.41972 14.7501 8.41962 14.7486V14.5433C8.97475 14.8086 9.59438 14.9578 10.2463 14.9578Z" fill="black"/>
</svg>
