<svg width="26" height="25" viewBox="0 0 26 25" fill="none" xmlns="http://www.w3.org/2000/svg">
<path d="M0.746368 0.760681V21.2811H8.77039V22.7484H7.30379V24.2133H19.1889V22.7484H17.7223V21.2811H25.7464V0.760681H0.746368ZM16.2574 22.7484H10.2353V21.2811H16.2574V22.7484H16.2574ZM24.2815 19.8162H2.21126V16.8829H24.2814V19.8162H24.2815ZM24.2815 15.418H2.21126V2.22562H24.2814V15.418H24.2815Z" fill="black"/>
<path d="M10.7045 6.17408L9.66868 5.13824L5.98514 8.82179L9.66868 12.5053L10.7045 11.4694L8.05682 8.82179L10.7045 6.17408Z" fill="black"/>
<path d="M16.8241 5.13824L15.7882 6.17408L18.4359 8.82179L15.7882 11.4694L16.8241 12.5053L20.5076 8.82179L16.8241 5.13824Z" fill="black"/>
<path d="M13.3783 4.40474L11.6777 12.9537L13.1145 13.2395L14.8151 4.69055L13.3783 4.40474Z" fill="black"/>
</svg>
